<svg xmlns="http://www.w3.org/2000/svg" viewBox="0 0 32 32" fill="none">
  <rect width="32" height="32" rx="7" fill="#0b1220"/>
  <defs>
    <linearGradient id="g1" x1="0" y1="0" x2="32" y2="32" gradientUnits="userSpaceOnUse">
      <stop offset="0%" stop-color="#4F7CFF"/>
      <stop offset="100%" stop-color="#8B6FFF"/>
    </linearGradient>
    <linearGradient id="g2" x1="9" y1="7" x2="19" y2="21" gradientUnits="userSpaceOnUse">
      <stop offset="0%" stop-color="#7aaaff"/>
      <stop offset="100%" stop-color="#c084fc"/>
    </linearGradient>
    <clipPath id="c1">
      <circle cx="14" cy="14" r="9.4"/>
    </clipPath>
  </defs>
  <circle cx="14" cy="14" r="10" stroke="url(#g1)" stroke-width="2"/>
  <line x1="14" y1="4.5" x2="14" y2="23.5"
    stroke="url(#g2)" stroke-width="1.6" stroke-linecap="round" clip-path="url(#c1)"/>
  <path d="M 18,9.5 C 18,7.8 16.5,7 14,7 C 11.5,7 9.5,8.2 9.5,10.5 C 9.5,12.8 12,13.2 14,14 C 16,14.8 18.5,15.5 18.5,18 C 18.5,20.2 16.5,21.5 14,21.5 C 11.5,21.5 9.5,20.2 9.5,18.5"
    stroke="url(#g2)" stroke-width="1.6" fill="none" stroke-linecap="round" clip-path="url(#c1)"/>
  <line x1="21.5" y1="21.5" x2="27.5" y2="27.5"
    stroke="url(#g1)" stroke-width="2.5" stroke-linecap="round"/>
</svg>
